<svg xmlns="http://www.w3.org/2000/svg" viewBox="0 0 743.29 136.84"><defs><style>.cls-1{fill:#fff;}</style></defs><title>jamejamonline</title><g id="Layer_2" data-name="Layer 2"><g id="Layer_1-2" data-name="Layer 1"><path class="cls-1" d="M40.76,52.38a9.29,9.29,0,0,0,9,9,9.28,9.28,0,0,0,9-9,9.27,9.27,0,0,0-9-9A9.28,9.28,0,0,0,40.76,52.38Z"/><path class="cls-1" d="M477,59.56c.3-7.08.07-14.18.06-21.28,0-2.15-.23-2.36-2.38-2.36-16.16,0-32.33,0-48.5,0a55.8,55.8,0,0,0-6.93.65A30.46,30.46,0,0,0,405.85,42c-6.53,4.51-10.82,10.63-12,18.44a35.5,35.5,0,0,0,.95,15.31,36.33,36.33,0,0,0,10.9,17.62c1,.86,1.55.89,2.48-.11q6.21-6.64,12.58-13.15c.91-.93.72-1.46,0-2.38a34.42,34.42,0,0,1-4.32-5.93C413.44,66.14,418,59,424.39,59c9.73,0,19.47,0,29.21,0,1.48,0,1.86.48,1.77,1.87a68.49,68.49,0,0,1-4.91,22.82c-5.25,12.43-14.09,21.07-27.11,24.93a59.85,59.85,0,0,1-30.62.83A40.87,40.87,0,0,1,367.21,92a46.84,46.84,0,0,1-6.78-15.31,67.41,67.41,0,0,1-2.39-13c-.4-8.64-.2-17.3-.19-26,0-1.43-.34-2.06-1.91-2-2.4.13-4.81,0-7.21,0h-13.2V47c-1.41-.8-2.53-1.48-3.68-2.09-8.36-4.49-17.08-7.94-26.69-8.31-7.44-.29-14.89-.34-22.33-.46q-9-.16-18-.24c-4.19,0-8.38,0-12.58,0v97.53c6.56,0,13-.09,19.4,0,1.92,0,2.26-.6,2.25-2.35q-.08-35.16,0-70.32V58.44h20.87c3.91,0,7.82,0,11.72.06A5.16,5.16,0,0,1,311,60.57a31.74,31.74,0,0,0-11.86,7.92c-10.73,10.75-14.58,23.61-10.57,38.16,3.88,14,13.3,23.12,27.52,27,1.41.38,2.78.92,4.16,1.39h10.1a6.71,6.71,0,0,1,1.67-.84A39.55,39.55,0,0,0,355.56,120c1.16-1.41,2.12-3,3.22-4.54l.81.67A68.36,68.36,0,0,0,399.44,134a66.54,66.54,0,0,0,32.81-4.62c23.1-9.61,37.3-26.86,42.87-51.08C476.51,72.21,476.69,65.82,477,59.56Z"/><path class="cls-1" d="M592.77,70.42C586.62,58.5,577,50.15,565.3,44c-8-4.16-16.35-7.19-25.48-7.46-7.2-.21-14.4-.33-21.61-.43-9.67-.13-19.34-.2-29-.29-2.27,0-2.28,0-2.28,2.31q0,46.6,0,93.21c0,1.59.49,2.09,2.06,2.08,5.89-.07,11.78,0,17.67,0,2.53,0,2.53,0,2.53-2.48q0-35.16,0-70.32c0-1.68.37-2.24,2.16-2.23,9.43.09,18.87,0,28.3.05a10.54,10.54,0,0,1,2.7.12c1.27.34,2.91.21,3.46,1.91a52,52,0,0,0-5.59,3.09c-10.19,7.37-16.76,16.88-17.7,29.81a37,37,0,0,0,2.25,16.54c4.92,12.47,13.86,20.44,26.89,23.79,1.3.33,2.55.86,3.82,1.29h10.1c.43-.27.84-.71,1.3-.79a40.15,40.15,0,0,0,17.49-7.93c8.14-6.09,12.26-14.45,13.69-24.18.61-4.16.25-8.48.13-12.72A43.86,43.86,0,0,0,592.77,70.42Z"/><path class="cls-1" d="M740.89,81c.82-3.65,1.21-7.4,1.83-11.1a9.49,9.49,0,0,1,.57-1.65V35.82c-.84,0-1.68.1-2.52.1-16.28,0-32.57,0-48.85,0a32.86,32.86,0,0,0-15.86,3.91c-10.6,5.7-16.47,14.47-16.12,26.73a43.59,43.59,0,0,0,1.81,10.73,33.71,33.71,0,0,0,10.51,16.22c.73.64,1.27.9,2.1,0q6.42-6.83,13-13.54c.84-.86.72-1.41-.06-2.23a31.72,31.72,0,0,1-3.43-4.16c-1.82-2.74-2.93-5.75-1.22-8.92s4.35-5.56,8-5.64c9.79-.2,19.59-.05,29.38-.09,1.32,0,1.75.38,1.72,1.77A64.63,64.63,0,0,1,717.94,81c-6.3,17.35-18.76,27.05-36.94,29.38a59.05,59.05,0,0,1-24.26-1.66,40.1,40.1,0,0,1-22.43-15.9c-6.95-10-9.8-21.3-10.14-33.29-.2-7.26,0-14.54,0-21.81V35.94h-22c0,.58-.14,1-.13,1.51.31,9.47.69,18.94.93,28.41a70.6,70.6,0,0,0,29.56,55.5,68.4,68.4,0,0,0,31.44,12.33,69.36,69.36,0,0,0,58.25-19.63,13.85,13.85,0,0,1,1.18-.89v2.08c0,5.4,0,10.81,0,16.22,0,1.15.22,1.81,1.57,1.8,6.12-.06,12.25-.05,18.38-.07V113H723.42c1.78-2.14,3.32-3.91,4.76-5.76A65.16,65.16,0,0,0,740.89,81Z"/><path class="cls-1" d="M77,30.07c0,6.07.06,12.13,0,18.2a58.72,58.72,0,0,1-.25,8.08,28.5,28.5,0,0,1-29.4,24.53c-14.25-.37-26.11-11.65-27.49-26.15A28.65,28.65,0,0,1,42.64,24.19c1.33-.28,2.67-.48,4-.7V3.81c-.52,0-.94,0-1.35,0A48.57,48.57,0,0,0,1.05,42.25c-.4,1.94-.7,3.89-1,5.83v8.3c.23,1.29.47,2.59.68,3.88a48.5,48.5,0,0,0,47.84,40.48c23.68,0,44.13-17.28,47.78-40.5.6-3.82.65-7.74,1-11.81h19.67V29.05H77.2A6.68,6.68,0,0,0,77,30.07Z"/><path class="cls-1" d="M178.49,73.27c.28-10.36-3.91-18.62-11.84-24.91-5,5-9.9,9.92-14.78,14.79a1.88,1.88,0,0,0,.29.13c4.19,1.67,6.46,5.06,6.13,9.16a8.82,8.82,0,0,1-16.6,3.39,9.36,9.36,0,0,1,2-11.07Q160.8,47.61,177.89,30.4a4,4,0,0,0,.91-2.52c.07-8.53,0-17.06,0-25.6V0c-1.07,1-1.77,1.61-2.41,2.26-4.31,4.37-8.58,8.76-12.9,13.11-7.29,7.33-14.67,14.56-21.88,22-5.43,5.58-11,11.11-15.91,17.11-5.17,6.26-6.79,13.79-5.69,21.87,2,14.94,15.42,25.87,30.79,25.11A29.45,29.45,0,0,0,178.49,73.27Z"/><path class="cls-1" d="M273,9.59a62.72,62.72,0,0,0,1.33-6.84H255.43c-2.22,5.63-6,8.15-11.77,7.34a24.22,24.22,0,0,1-6.89-2.43c-2.42-1.17-4.63-2.79-7-4.09C224.87.84,219.59-.62,214,.36c-11.51,2-19.09,9-23.5,19.59a37.37,37.37,0,0,0-1.44,6h19.25c1.73-4.51,4.31-6.34,9.18-6.73,3.9-.31,7.11,1.11,10.12,3.46a36.35,36.35,0,0,0,7,4.73C248.41,33.68,267.53,27,273,9.59Z"/><path class="cls-1" d="M223.36,97.71H243.7V35.91H223.36Z"/><path class="cls-1" d="M181.84,80c-2.78,10-4.89,13-14.5,20.39a61.89,61.89,0,0,0,19.29-1.14c8.83-1.89,16.78-5.48,22.62-12.71,5.62-7,7.41-15.13,7.5-23.92H197C194.67,74.55,191.32,78.38,181.84,80Z"/><path class="cls-1" d="M146.19,27.61,119,0c0,9.32,0,18.19,0,27.07a2.48,2.48,0,0,0,.65,1.56c4.18,4.38,8.4,8.72,12.43,12.87Z"/><path class="cls-1" d="M475.68,112.9q-8.37.07-16.75,0c-1.32,0-1.77.42-1.76,1.75q.09,8.37,0,16.75c0,1.42.47,1.89,1.87,1.88q8.28-.09,16.57,0c1.32,0,1.63-.53,1.6-1.72,0-2.76,0-5.52,0-8.28,0-2.94-.05-5.88,0-8.82C477.24,113.29,476.86,112.89,475.68,112.9Z"/><path class="cls-1" d="M195.1,55.29a9,9,0,1,0-9-9.06A9,9,0,0,0,195.1,55.29Z"/><path class="cls-1" d="M106.76,62.52a9,9,0,1,0,9,9A9.26,9.26,0,0,0,106.76,62.52Z"/><path class="cls-1" d="M106.76,83.44a9,9,0,1,0,9,9A9.25,9.25,0,0,0,106.76,83.44Z"/><path class="cls-1" d="M4.07,131.54l-4-13.06H2.36L4.44,126l.77,2.8c0-.13.26-1,.68-2.69L8,118.48h2.28l1.95,7.58.65,2.49L13.6,126l2.24-7.55H18l-4.09,13.06h-2.3l-2.08-7.82L9,121.49l-2.65,10Z"/><path class="cls-1" d="M22.26,131.54l-4-13.06h2.28L22.63,126l.78,2.8c0-.13.26-1,.67-2.69l2.08-7.65h2.28l1.95,7.58.66,2.49L31.8,126,34,118.48h2.15L32.1,131.54H29.8l-2.08-7.82-.5-2.23-2.64,10Z"/><path class="cls-1" d="M40.46,131.54l-4-13.06h2.29L40.82,126l.78,2.8c0-.13.26-1,.68-2.69l2.07-7.65h2.28l2,7.58.65,2.49L50,126l2.24-7.55h2.15L50.3,131.54H48l-2.08-7.82-.51-2.23-2.64,10Z"/><path class="cls-1" d="M55.48,131.54V129H58v2.52Z"/><path class="cls-1" d="M59,136.61l.42-1.88a4.67,4.67,0,0,0,1,.17,1.17,1.17,0,0,0,1-.45,4.61,4.61,0,0,0,.33-2.24V118.48h2.22v13.78a6.42,6.42,0,0,1-.63,3.35,2.93,2.93,0,0,1-2.66,1.23A6.28,6.28,0,0,1,59,136.61Zm2.8-20.53v-2.57h2.22v2.57Z"/><path class="cls-1" d="M76,129.93a8.25,8.25,0,0,1-2.37,1.48,7,7,0,0,1-2.44.43,4.75,4.75,0,0,1-3.31-1.05,3.5,3.5,0,0,1-1.16-2.69,3.58,3.58,0,0,1,.44-1.75,3.62,3.62,0,0,1,1.14-1.28,5.41,5.41,0,0,1,1.6-.72,15.11,15.11,0,0,1,2-.34,19.6,19.6,0,0,0,4-.76c0-.3,0-.49,0-.58a2.43,2.43,0,0,0-.62-1.9,3.72,3.72,0,0,0-2.52-.75,4,4,0,0,0-2.31.54,3.38,3.38,0,0,0-1.1,1.94l-2.17-.29a5.3,5.3,0,0,1,1-2.25,4.18,4.18,0,0,1,2-1.31,8.69,8.69,0,0,1,3-.47,7.93,7.93,0,0,1,2.72.4,3.56,3.56,0,0,1,1.53,1,3.46,3.46,0,0,1,.69,1.51,12.8,12.8,0,0,1,.11,2v2.95a32.19,32.19,0,0,0,.14,3.9,5,5,0,0,0,.56,1.57H76.41A4.53,4.53,0,0,1,76,129.93ZM75.78,125a16.78,16.78,0,0,1-3.61.83,7.83,7.83,0,0,0-1.93.45A1.89,1.89,0,0,0,69.05,128a1.87,1.87,0,0,0,.68,1.47,2.84,2.84,0,0,0,2,.59,4.47,4.47,0,0,0,2.27-.56A3.39,3.39,0,0,0,75.43,128a5.49,5.49,0,0,0,.35-2.21Z"/><path class="cls-1" d="M81.45,131.54V118.48h2v1.83a4.66,4.66,0,0,1,1.64-1.54,4.6,4.6,0,0,1,2.32-.59,4.29,4.29,0,0,1,2.38.61,3.19,3.19,0,0,1,1.31,1.68,4.72,4.72,0,0,1,4-2.29,4,4,0,0,1,3,1.08,4.59,4.59,0,0,1,1,3.32v9H97v-8.23a6.21,6.21,0,0,0-.21-1.91,1.93,1.93,0,0,0-.78-.94,2.43,2.43,0,0,0-1.33-.36,3.11,3.11,0,0,0-2.29.92,4,4,0,0,0-.91,2.93v7.59H89.21v-8.48a3.67,3.67,0,0,0-.54-2.22,2.05,2.05,0,0,0-1.77-.74,3.22,3.22,0,0,0-1.73.5A2.8,2.8,0,0,0,84,122a8.43,8.43,0,0,0-.35,2.74v6.77Z"/><path class="cls-1" d="M111.38,127.34l2.29.28a5.55,5.55,0,0,1-2,3.11,6.77,6.77,0,0,1-8.28-.66,6.87,6.87,0,0,1-1.68-4.95,7.24,7.24,0,0,1,1.7-5.12,5.75,5.75,0,0,1,4.4-1.82,5.57,5.57,0,0,1,4.28,1.79,7.07,7.07,0,0,1,1.66,5c0,.13,0,.32,0,.59H104a5,5,0,0,0,1.22,3.29,3.6,3.6,0,0,0,2.73,1.15,3.45,3.45,0,0,0,2.08-.64A4.33,4.33,0,0,0,111.38,127.34Zm-7.27-3.58h7.3a4.46,4.46,0,0,0-.84-2.48,3.41,3.41,0,0,0-2.74-1.28,3.55,3.55,0,0,0-2.57,1A4.08,4.08,0,0,0,104.11,123.76Z"/><path class="cls-1" d="M113.63,136.61l.42-1.88a4.65,4.65,0,0,0,1,.17,1.15,1.15,0,0,0,1-.45,4.45,4.45,0,0,0,.34-2.24V118.48h2.21v13.78a6.42,6.42,0,0,1-.63,3.35,2.92,2.92,0,0,1-2.65,1.23A6.3,6.3,0,0,1,113.63,136.61Zm2.81-20.53v-2.57h2.21v2.57Z"/><path class="cls-1" d="M130.57,129.93a8.25,8.25,0,0,1-2.37,1.48,7,7,0,0,1-2.44.43,4.76,4.76,0,0,1-3.31-1.05,3.5,3.5,0,0,1-1.16-2.69,3.67,3.67,0,0,1,1.59-3,5.24,5.24,0,0,1,1.59-.72,15,15,0,0,1,2-.34,19.62,19.62,0,0,0,3.94-.76c0-.3,0-.49,0-.58a2.43,2.43,0,0,0-.63-1.9,3.72,3.72,0,0,0-2.52-.75,4,4,0,0,0-2.31.54,3.44,3.44,0,0,0-1.1,1.94l-2.16-.29a5.3,5.3,0,0,1,1-2.25,4.18,4.18,0,0,1,1.95-1.31,8.69,8.69,0,0,1,3-.47,7.93,7.93,0,0,1,2.72.4,3.5,3.5,0,0,1,1.53,1,3.46,3.46,0,0,1,.69,1.51,11.68,11.68,0,0,1,.11,2v2.95a29.38,29.38,0,0,0,.15,3.9,4.77,4.77,0,0,0,.56,1.57H131A4.53,4.53,0,0,1,130.57,129.93Zm-.19-4.94a16.63,16.63,0,0,1-3.61.83,7.83,7.83,0,0,0-1.93.45,1.87,1.87,0,0,0-1.18,1.77,1.86,1.86,0,0,0,.67,1.47,2.84,2.84,0,0,0,2,.59,4.47,4.47,0,0,0,2.27-.56A3.39,3.39,0,0,0,130,128a5.32,5.32,0,0,0,.35-2.21Z"/><path class="cls-1" d="M136.06,131.54V118.48h2v1.83a4.61,4.61,0,0,1,4-2.13,4.33,4.33,0,0,1,2.38.61,3.24,3.24,0,0,1,1.31,1.68,4.7,4.7,0,0,1,4-2.29,4,4,0,0,1,3,1.08,4.59,4.59,0,0,1,1,3.32v9h-2.21v-8.23a6.21,6.21,0,0,0-.21-1.91,1.82,1.82,0,0,0-.78-.94,2.43,2.43,0,0,0-1.33-.36,3.11,3.11,0,0,0-2.29.92A4,4,0,0,0,146,124v7.59h-2.21v-8.48a3.74,3.74,0,0,0-.54-2.22,2.06,2.06,0,0,0-1.78-.74,3.19,3.19,0,0,0-1.72.5,2.7,2.7,0,0,0-1.15,1.43,8.12,8.12,0,0,0-.36,2.74v6.77Z"/><path class="cls-1" d="M156.22,125q0-3.63,2-5.37a6.1,6.1,0,0,1,4.11-1.46,5.86,5.86,0,0,1,4.41,1.77,6.72,6.72,0,0,1,1.71,4.88,8.66,8.66,0,0,1-.76,4,5.36,5.36,0,0,1-2.2,2.25,6.48,6.48,0,0,1-3.16.8,5.87,5.87,0,0,1-4.43-1.76A7,7,0,0,1,156.22,125Zm2.27,0a5.57,5.57,0,0,0,1.1,3.76,3.52,3.52,0,0,0,2.75,1.25,3.46,3.46,0,0,0,2.74-1.26,5.67,5.67,0,0,0,1.1-3.82,5.4,5.4,0,0,0-1.1-3.67,3.65,3.65,0,0,0-5.49,0A5.54,5.54,0,0,0,158.49,125Z"/><path class="cls-1" d="M171.05,131.54V118.48h2v1.86a4.7,4.7,0,0,1,4.16-2.16,5.49,5.49,0,0,1,2.17.43,3.33,3.33,0,0,1,1.48,1.11,4.26,4.26,0,0,1,.69,1.64,11.7,11.7,0,0,1,.13,2.15v8h-2.22V123.6a5.83,5.83,0,0,0-.26-2,2.14,2.14,0,0,0-.91-1.07,3,3,0,0,0-1.55-.4,3.59,3.59,0,0,0-2.44.9c-.68.6-1,1.74-1,3.41v7.13Z"/><path class="cls-1" d="M185,131.54v-18h2.22v18Z"/><path class="cls-1" d="M190.67,116.06v-2.55h2.21v2.55Zm0,15.48V118.48h2.21v13.06Z"/><path class="cls-1" d="M196.25,131.54V118.48h2v1.86a4.68,4.68,0,0,1,4.15-2.16,5.54,5.54,0,0,1,2.18.43,3.39,3.39,0,0,1,1.48,1.11,4.26,4.26,0,0,1,.69,1.64,13,13,0,0,1,.12,2.15v8h-2.21V123.6a6.08,6.08,0,0,0-.26-2,2.21,2.21,0,0,0-.92-1.07,3,3,0,0,0-1.54-.4,3.56,3.56,0,0,0-2.44.9c-.69.6-1,1.74-1,3.41v7.13Z"/><path class="cls-1" d="M219.21,127.34l2.29.28a5.61,5.61,0,0,1-2,3.11,6,6,0,0,1-3.74,1.11,6,6,0,0,1-4.54-1.77,6.87,6.87,0,0,1-1.68-4.95,7.24,7.24,0,0,1,1.69-5.12,5.78,5.78,0,0,1,4.41-1.82,5.58,5.58,0,0,1,4.28,1.79,7.07,7.07,0,0,1,1.66,5c0,.13,0,.32,0,.59h-9.75a5,5,0,0,0,1.22,3.29,3.6,3.6,0,0,0,2.73,1.15,3.41,3.41,0,0,0,2.08-.64A4.27,4.27,0,0,0,219.21,127.34Zm-7.27-3.58h7.29a4.54,4.54,0,0,0-.83-2.48,3.41,3.41,0,0,0-2.75-1.28,3.52,3.52,0,0,0-2.56,1A4,4,0,0,0,211.94,123.76Z"/><path class="cls-1" d="M224.9,131.54V129h2.52v2.52Z"/><path class="cls-1" d="M231.29,116.06v-2.55h2.21v2.55Zm0,15.48V118.48h2.21v13.06Z"/><path class="cls-1" d="M236.85,131.54V118.48h2v2a5.32,5.32,0,0,1,1.41-1.83,2.42,2.42,0,0,1,1.42-.45,4.26,4.26,0,0,1,2.27.72l-.76,2a3.15,3.15,0,0,0-1.62-.48,2.13,2.13,0,0,0-1.31.44,2.34,2.34,0,0,0-.82,1.21,8.51,8.51,0,0,0-.37,2.58v6.84Z"/></g></g></svg>